<svg xmlns="http://www.w3.org/2000/svg" width="16" height="16" viewBox="0 0 16 16">
  <title>favicon</title>
  <path d="M13,8c0,4.418-.582,8-5,8a7.988,7.988,0,0,1-6.471-3.295C.567,11.384,1,9.758,1,8,1,3.582,3.582,1,8,1S13,3.582,13,8Z" fill="#222652"/>
  <path d="M8,0A8,8,0,0,0,1.736,12.976,17.151,17.151,0,0,1,4.71,9.625c.034-.028.115-.087.217-.162a2.335,2.335,0,0,0,.921-1.5v-.01C6.144,6,6.944,5.33,9.169,5.33c.2,0,.408.006.629.016a3.474,3.474,0,0,1,2.1.638.969.969,0,0,1,.035.424L11.839,6.4c-.7-.087-2.021-.1-2.171.668A4.862,4.862,0,0,0,9.725,8.42,13.3,13.3,0,0,1,9.8,9.789c0,.035-.028.213,0,.232-1.211-1.159-4.011.3-4.893.935.091-.03.182-.063.272-.1.84-.286,3.392-1.051,4.376-.205.834,1.022.083,2.907-.538,3.842a7.709,7.709,0,0,1-1.323,1.473c.1,0,.2.031.306.031A8,8,0,0,0,8,0Zm.92,4.141A1.382,1.382,0,1,1,10.3,2.759,1.383,1.383,0,0,1,8.92,4.141Z" fill="#fe4a3c"/>
</svg>
