<?xml version="1.0" encoding="UTF-8"?>
<svg width="23px" height="22px" viewBox="0 0 23 22" version="1.1" xmlns="http://www.w3.org/2000/svg" xmlns:xlink="http://www.w3.org/1999/xlink">
    <title>auto-format</title>
    <g id="auto-format" stroke="none" stroke-width="1" fill="none" fill-rule="evenodd">
        <g transform="translate(3.000000, 0.000000)">
            <line x1="6" y1="3.5" x2="0.5" y2="3.5" id="Line" stroke="#474D84" stroke-linecap="square"></line>
            <line x1="6" y1="19.5" x2="0.5" y2="19.5" id="Line-Copy" stroke="#474D84" stroke-linecap="square"></line>
            <line x1="16.5" y1="19.5" x2="12" y2="19.5" id="Line-Copy-3" stroke="#474D84" stroke-linecap="square"></line>
            <line x1="16.5" y1="3.5" x2="12" y2="3.5" id="Line-Copy-4" stroke="#474D84" stroke-linecap="square"></line>
            <polygon id="Triangle" fill="#474D84" fill-rule="nonzero" transform="translate(11.500000, 3.000000) rotate(-90.000000) translate(-11.500000, -3.000000) " points="11.5 1 14 5 9 5"></polygon>
            <polygon id="Triangle-Copy" fill="#474D84" fill-rule="nonzero" transform="translate(6.233333, 19.559374) rotate(90.000000) translate(-6.233333, -19.559374) " points="6.23333333 17.5193744 8.6487725 21.5993744 3.81789416 21.5993744"></polygon>
            <line x1="0.5" y1="4" x2="0.5" y2="19" id="Line-2" stroke="#474D84" stroke-linecap="square"></line>
            <line x1="16.5" y1="4" x2="16.5" y2="19" id="Line-2-Copy" stroke="#474D84" stroke-linecap="square"></line>
            <g id="icons8-more" transform="translate(8.601333, 11.454698) rotate(90.000000) translate(-8.601333, -11.454698) translate(-1.398667, 8.454698)" fill="#474D84" fill-rule="nonzero">
                <path d="M2.72,-5.68434189e-14 C1.22364595,-5.68434189e-14 5.68434189e-14,1.24186653 5.68434189e-14,2.76050191 C5.68434189e-14,4.27913728 1.22364595,5.52100382 2.72,5.52100382 C4.21635405,5.52100382 5.44,4.27913728 5.44,2.76050191 C5.44,1.24186653 4.21635405,-5.68434189e-14 2.72,-5.68434189e-14 Z M9.97333333,-5.68434189e-14 C8.47697928,-5.68434189e-14 7.25333333,1.24186653 7.25333333,2.76050191 C7.25333333,4.27913728 8.47697928,5.52100382 9.97333333,5.52100382 C11.4696874,5.52100382 12.6933333,4.27913728 12.6933333,2.76050191 C12.6933333,1.24186653 11.4696874,-5.68434189e-14 9.97333333,-5.68434189e-14 Z M17.2266667,-5.68434189e-14 C15.7303126,-5.68434189e-14 14.5066667,1.24186653 14.5066667,2.76050191 C14.5066667,4.27913728 15.7303126,5.52100382 17.2266667,5.52100382 C18.7230207,5.52100382 19.9466667,4.27913728 19.9466667,2.76050191 C19.9466667,1.24186653 18.7230207,-5.68434189e-14 17.2266667,-5.68434189e-14 Z M2.72,0.920167303 C3.72760405,0.920167303 4.53333333,1.73789422 4.53333333,2.76050191 C4.53333333,3.7831096 3.72760405,4.60083652 2.72,4.60083652 C1.71239595,4.60083652 0.906666667,3.7831096 0.906666667,2.76050191 C0.906666667,1.73789422 1.71239595,0.920167303 2.72,0.920167303 Z M9.97333333,0.920167303 C10.9809374,0.920167303 11.7866667,1.73789422 11.7866667,2.76050191 C11.7866667,3.7831096 10.9809374,4.60083652 9.97333333,4.60083652 C8.96572928,4.60083652 8.16,3.7831096 8.16,2.76050191 C8.16,1.73789422 8.96572928,0.920167303 9.97333333,0.920167303 Z M17.2266667,0.920167303 C18.2342707,0.920167303 19.04,1.73789422 19.04,2.76050191 C19.04,3.7831096 18.2342707,4.60083652 17.2266667,4.60083652 C16.2190626,4.60083652 15.4133333,3.7831096 15.4133333,2.76050191 C15.4133333,1.73789422 16.2190626,0.920167303 17.2266667,0.920167303 Z" id="Shape"></path>
            </g>
        </g>
    </g>
</svg>