<svg xmlns="http://www.w3.org/2000/svg" xmlns:xlink="http://www.w3.org/1999/xlink" width="67.625mm" height="18.508mm" viewBox="0 0 191.694 52.463">
  <defs>
    <clipPath id="a">
      <rect x="126.444" y="15.084" width="2.988" height="24.275" fill="none"/>
    </clipPath>
    <clipPath id="b">
      <rect x="-26.729" y="-24.537" width="1920" height="1080" fill="none"/>
    </clipPath>
    <clipPath id="c">
      <path d="M154.818,27.33a7.611,7.611,0,0,0,2.2-5.388,7.507,7.507,0,0,0-7.412-7.582l-14.609,0,0,24.8h3.138V29.436l11.393.085c.088,0,.175-.009.263-.012L154.3,39.1h3.483L152.9,28.725A7.394,7.394,0,0,0,154.818,27.33Zm-16.683-9.763,11.471,0a4.33,4.33,0,0,1,4.274,4.372,4.391,4.391,0,0,1-1.269,3.108,4.142,4.142,0,0,1-3.058,1.262l-11.42-.085Z" fill="none" clip-rule="evenodd"/>
    </clipPath>
    <clipPath id="e">
      <rect x="160.508" y="14.383" width="24.257" height="24.804" fill="none"/>
    </clipPath>
    <clipPath id="f">
      <rect x="160.271" y="13.463" width="25" height="26" fill="none"/>
    </clipPath>
    <clipPath id="g">
      <path d="M172.638,14.383a12.405,12.405,0,1,0,12.126,12.4,12.281,12.281,0,0,0-12.126-12.4m0,21.6a9.195,9.195,0,1,1,8.992-9.191,9.105,9.105,0,0,1-8.992,9.191" fill="none" clip-rule="evenodd"/>
    </clipPath>
    <clipPath id="i">
      <path d="M108.932,14.176A12.281,12.281,0,0,0,96.8,26.576l0,12.577h3.139V29.691l17.981,0,0,9.463h3.138l0-12.577a12.281,12.281,0,0,0-12.126-12.4m0,3.209a9.1,9.1,0,0,1,8.986,9.1l-17.976,0a9.1,9.1,0,0,1,8.99-9.1" fill="none" clip-rule="evenodd"/>
    </clipPath>
    <clipPath id="k">
      <path d="M83.2,17.381a8.908,8.908,0,0,1,6.764,3.138l2.361-2.114a12.021,12.021,0,0,0-9.124-4.233,12.405,12.405,0,0,0,0,24.8,12.045,12.045,0,0,0,8.893-3.966l-2.3-2.184A8.93,8.93,0,0,1,83.2,35.767a9.2,9.2,0,0,1,0-18.386" fill="none" clip-rule="evenodd"/>
    </clipPath>
    <clipPath id="m">
      <rect x="11.271" y="4.738" width="42.761" height="43.725" fill="none"/>
    </clipPath>
    <clipPath id="n">
      <rect x="10.271" y="4.463" width="44" height="44" fill="none"/>
    </clipPath>
    <clipPath id="o">
      <path d="M32.651,4.738A21.625,21.625,0,0,0,11.271,26.6,22.076,22.076,0,0,0,15.9,40.181a45.931,45.931,0,0,1,7.956-9.14c.09-.075.306-.237.58-.442A6.4,6.4,0,0,0,26.9,26.5v-.027c.791-5.33,2.931-7.168,8.875-7.168.527,0,1.091.017,1.682.043,3.041.146,4.8,1.035,5,1.5a1.274,1.274,0,0,1,.059.792l-.238-.032c-1.876-.237-4.769.351-5.17,2.441a13.637,13.637,0,0,0,.153,3.7,37.337,37.337,0,0,1,.211,3.741c-.006.1-.074.582-.011.635-3.236-3.168-10.72.809-13.076,2.555.243-.081.485-.173.728-.264,2.244-.782,9.064-2.872,11.7-.561,2.229,2.792.221,7.944-1.439,10.5a21.01,21.01,0,0,1-3.506,4.089c.261.01.523.021.788.021A21.625,21.625,0,0,0,54.031,26.6,21.625,21.625,0,0,0,32.651,4.738m2.46,11.837a4.3,4.3,0,1,1,4.205-4.3,4.256,4.256,0,0,1-4.205,4.3" fill="none" clip-rule="evenodd"/>
    </clipPath>
    <clipPath id="p">
      <rect x="11.271" y="4.463" width="43" height="44" fill="none"/>
    </clipPath>
  </defs>
  <title>Artboard 1</title>
  <g clip-path="url(#a)">
    <g clip-path="url(#b)">
      <rect x="121.442" y="10.084" width="12.992" height="34.276" fill="#fe4a49"/>
    </g>
  </g>
  <g clip-path="url(#c)">
    <g clip-path="url(#b)">
      <rect x="129.993" y="9.358" width="32.795" height="34.802" fill="#fe4a49"/>
    </g>
  </g>
  <g clip-path="url(#e)">
    <g style="isolation: isolate">
      <g clip-path="url(#f)">
        <g clip-path="url(#g)">
          <g clip-path="url(#f)">
            <rect x="155.508" y="9.383" width="34.257" height="34.804" fill="#fe4a49"/>
          </g>
        </g>
      </g>
    </g>
  </g>
  <g clip-path="url(#i)">
    <g clip-path="url(#b)">
      <rect x="91.799" y="9.176" width="34.259" height="34.982" fill="#fe4a49"/>
    </g>
  </g>
  <g clip-path="url(#k)">
    <g clip-path="url(#b)">
      <rect x="66.074" y="9.172" width="31.255" height="34.804" fill="#fe4a49"/>
    </g>
  </g>
  <g clip-path="url(#m)">
    <g style="isolation: isolate">
      <g clip-path="url(#n)">
        <g clip-path="url(#o)">
          <g clip-path="url(#p)">
            <rect x="6.271" y="-0.262" width="52.761" height="53.725" fill="#fe4a49"/>
          </g>
        </g>
      </g>
    </g>
  </g>
</svg>
