<?xml version="1.0" encoding="UTF-8"?>
<svg width="76px" height="13px" viewBox="0 0 76 13" version="1.1" xmlns="http://www.w3.org/2000/svg" xmlns:xlink="http://www.w3.org/1999/xlink">
    <title>Group 30</title>
    <defs>
        <filter id="filter-1">
            <feColorMatrix in="SourceGraphic" type="matrix" values="0 0 0 0 0.705882 0 0 0 0 0.721569 0 0 0 0 0.890196 0 0 0 1.000000 0"></feColorMatrix>
        </filter>
        <polygon id="path-2" points="0 0.0742998586 7.05650843 0.0742998586 7.05650843 9.29415488 0 9.29415488"></polygon>
    </defs>
    <g id="Page-1" stroke="none" stroke-width="1" fill="none" fill-rule="evenodd">
        <g id="Group-30" transform="translate(-1810.000000, -1059.000000)" filter="url(#filter-1)">
            <g transform="translate(1810.000000, 1059.000000)">
                <g id="Group-3" transform="translate(0.000000, 0.450217)">
                    <mask id="mask-3" fill="white">
                        <use xlink:href="#path-2"></use>
                    </mask>
                    <g id="Clip-2"></g>
                    <path d="M5.21694217,4.52958628 C5.38450843,4.49622348 5.5447494,4.4741319 5.69583373,4.46105728 C5.84691807,4.44888437 5.99388193,4.44257249 6.1367253,4.44257249 C6.27911084,4.44257249 6.42836386,4.44888437 6.58402651,4.46105728 C6.73923133,4.4741319 6.89260482,4.49622348 7.04368916,4.52958628 L6.25026747,8.94655057 C5.88033976,9.07053395 5.46462892,9.16025283 5.00267711,9.21480552 C4.5407253,9.26755481 4.1080747,9.29415488 3.7047253,9.29415488 C3.09168916,9.29415488 2.55373735,9.20714109 2.09178554,9.03356436 C1.62983373,8.85953678 1.2434241,8.62058699 0.932556627,8.3149116 C0.621689157,8.00833451 0.388653012,7.64585219 0.233448193,7.22881719 C0.0777855422,6.81133133 -4.57831325e-05,6.35777758 -4.57831325e-05,5.86950849 C-4.57831325e-05,5.06699788 0.122195181,4.31453147 0.365761446,3.61165842 C0.60886988,2.90788366 0.951785542,2.29382779 1.39267711,1.76858911 C1.83356867,1.24380127 2.36465301,0.829471358 2.98684578,0.527853607 C3.60812289,0.225785007 4.29715904,0.0742998586 5.05303855,0.0742998586 C5.44768916,0.0742998586 5.80067711,0.0995473833 6.11154458,0.149140736 C6.42241205,0.198734088 6.7374,0.294314003 7.05650843,0.434978784 C7.00614699,0.691511669 6.94067711,0.930461457 6.86101446,1.15498409 C6.78135181,1.37815417 6.6700988,1.6211616 6.52725542,1.88716231 C6.26720723,1.77895863 6.02776145,1.70817539 5.8093759,1.67571429 C5.59053253,1.64235149 5.37626747,1.62521924 5.16612289,1.62521924 C4.60390602,1.62521924 4.1227253,1.74559583 3.72395422,1.98589816 C3.3247253,2.2262005 2.99691807,2.53818777 2.74099036,2.92276167 C2.48460482,3.30688472 2.29552048,3.74420792 2.17373735,4.23157532 C2.05195422,4.71939356 1.99106265,5.21217115 1.99106265,5.70810467 C1.99106265,6.42810997 2.16915904,6.94162659 2.5267253,7.24685113 C2.8833759,7.55297737 3.35631566,7.70626591 3.94417108,7.70626591 C4.06183373,7.70626591 4.19185783,7.69950318 4.3347012,7.68733027 C4.47754458,7.6756082 4.58696627,7.66118105 4.6620506,7.64359795 L5.21694217,4.52958628 Z" id="Fill-1" fill="#FAFAF5" mask="url(#mask-3)"></path>
                </g>
                <path d="M7.7243012,5.93519714 C7.81678313,5.41401609 7.88591566,4.95279791 7.93261446,4.55154261 C7.97839759,4.15073815 8.00174699,3.83784919 8.00174699,3.6146791 L8.00174699,3.38519714 C8.00174699,3.32298002 7.99716867,3.25535272 7.98892771,3.18051185 C8.26637349,3.13091849 8.54381928,3.10567097 8.8203494,3.10567097 C8.94671084,3.10567097 9.07261446,3.11288455 9.1989759,3.12505746 C9.32442169,3.13677953 9.4590241,3.15616602 9.60186747,3.18051185 C9.61880723,3.2467866 9.63528916,3.32568511 9.65222892,3.41675654 C9.66916867,3.50737712 9.67740964,3.64398426 9.67740964,3.82567627 C9.67740964,3.90051715 9.67512048,3.97490718 9.671,4.04884636 C9.66687952,4.12368723 9.6563494,4.21430781 9.63986747,4.32251149 C9.72319277,4.17328059 9.82849398,4.02675477 9.95439759,3.88113066 C10.080759,3.73685909 10.2213133,3.60656383 10.3765181,3.49024487 C10.5321807,3.37527847 10.7043253,3.28240364 10.8934096,3.2116204 C11.082494,3.14083716 11.2903494,3.10567097 11.5174337,3.10567097 C11.6936988,3.10567097 11.845241,3.12686086 11.9706867,3.16833893 C11.9789277,3.20170173 11.983506,3.23416284 11.983506,3.26707479 L11.983506,3.3793361 C11.983506,3.61062146 11.953747,3.8509238 11.8951446,4.09843971 C11.8365422,4.34685732 11.7564217,4.55379685 11.6556988,4.71925831 C11.6057952,4.71114303 11.5508554,4.70212606 11.4917952,4.69401079 C11.4331928,4.68589551 11.3576506,4.68183787 11.2651687,4.68183787 C10.9204217,4.68183787 10.6370241,4.7395465 10.4145181,4.85586545 C10.192012,4.97173356 10.0088795,5.13448992 9.86649398,5.34548709 C9.72319277,5.55648426 9.61010843,5.81076291 9.5263253,6.10877387 C9.44254217,6.40678483 9.36654217,6.73815859 9.29924096,7.10154261 L8.83316867,9.59563738 C8.50581928,9.64523073 8.19907229,9.67047825 7.91338554,9.67047825 C7.619,9.67047825 7.3296506,9.64523073 7.04396386,9.59563738 L7.7243012,5.93519714 Z" id="Fill-4" fill="#94A5C9"></path>
                <path d="M14.2137398,9.74410184 C13.3484386,9.74410184 12.712053,9.5213826 12.305041,9.07504243 C11.8971133,8.62825141 11.6938361,8.01509724 11.6938361,7.23783416 C11.6938361,6.74190064 11.7689205,6.24281117 11.9204627,5.74327086 C12.071547,5.24282885 12.2986313,4.79243105 12.6008,4.39027405 C12.9029687,3.98901874 13.2829687,3.66215347 13.7417157,3.41012907 C14.1986313,3.15855552 14.7347518,3.03186704 15.347788,3.03186704 C16.2213301,3.03186704 16.8618361,3.25909477 17.269306,3.71400106 C17.6767759,4.16890736 17.8809687,4.78476662 17.8809687,5.5629314 C17.8809687,6.07554632 17.8068,6.58049682 17.660294,7.07688119 C17.5133301,7.57326556 17.2885349,8.01960573 16.9859084,8.41770509 C16.6832819,8.81400106 16.3009928,9.13410361 15.839041,9.37846358 C15.3770892,9.62192185 14.8350169,9.74410184 14.2137398,9.74410184 M14.3776434,8.40417963 C14.6967518,8.40417963 14.9654988,8.30544378 15.1838843,8.10616867 C15.4022699,7.90869696 15.5812819,7.66208274 15.719547,7.36812942 C15.857812,7.07507779 15.9571614,6.76444307 16.015306,6.43802864 C16.0743663,6.11071252 16.1041253,5.81540665 16.1041253,5.55030764 C16.1041253,4.78972595 15.7886795,4.40920969 15.1587036,4.40920969 C14.8391373,4.40920969 14.5745108,4.51245403 14.3648241,4.71939356 C14.1546795,4.9263331 13.9825349,5.17790665 13.8479325,5.47546676 C13.713788,5.77347772 13.6194747,6.08907178 13.5645349,6.419093 C13.5105108,6.75001591 13.483041,7.04442008 13.483041,7.30050212 C13.483041,8.03673798 13.7810892,8.40417963 14.3776434,8.40417963" id="Fill-6" fill="#94A5C9"></path>
                <path d="M19.456,4.52034388 L18.4858554,4.52034388 C18.4858554,4.2971738 18.5023373,4.07806135 18.5362169,3.86300654 C18.5696386,3.64795173 18.6323614,3.42072401 18.7248434,3.18042168 L19.6954458,3.18042168 L19.770988,2.80756984 C19.8126506,2.601532 19.8378313,2.40496199 19.8465301,2.21876149 C19.8547711,2.03211015 19.8588916,1.87746906 19.8588916,1.75348568 C20.0772771,1.61327175 20.3506024,1.51318335 20.6784096,1.45547472 C21.005759,1.39821694 21.3083855,1.36846093 21.5853735,1.36846093 C21.627494,1.49289516 21.6485542,1.65024134 21.6485542,1.84049947 C21.6485542,1.97259813 21.6375663,2.1150663 21.6169639,2.26835484 C21.5959036,2.42209424 21.5684337,2.58935909 21.535012,2.77150194 L21.459012,3.18042168 L23.0220482,3.18042168 C23.0220482,3.42883929 23.000988,3.65606701 22.9588675,3.86300654 C22.916747,4.06994607 22.8576867,4.28905852 22.7826024,4.52034388 L21.2195663,4.52034388 L20.7786747,6.96529615 C20.7617349,7.08116425 20.7475422,7.18846623 20.7347229,7.28720209 C20.7223614,7.38729049 20.7159518,7.48196871 20.7159518,7.57304013 C20.7159518,7.78854579 20.7663133,7.95806489 20.8670361,8.08204827 C20.9682169,8.20603165 21.1573012,8.26779791 21.4338313,8.26779791 C21.5771325,8.26779791 21.7025783,8.25833009 21.8124578,8.23623851 C21.9209639,8.21640117 22.0221446,8.19295704 22.1146265,8.16861121 C22.2235904,8.40891354 22.2785301,8.72315506 22.2785301,9.1117866 L22.2785301,9.31016001 C22.2785301,9.37643476 22.2739518,9.44316036 22.2657108,9.50898426 C21.9049398,9.6158354 21.4718313,9.67038808 20.9682169,9.67038808 C20.262241,9.67038808 19.7393976,9.54189622 19.3992289,9.28581418 C19.0590602,9.02928129 18.888747,8.59917168 18.888747,7.99548533 C18.888747,7.8710511 18.896988,7.74255923 18.9139277,7.61046057 C18.9308675,7.47791107 18.9519277,7.3336395 18.9771084,7.17629332 L19.456,4.52034388 Z" id="Fill-8" fill="#94A5C9"></path>
                <path d="M24.5212169,7.16403023 C24.5720361,7.56077705 24.7061807,7.85698462 24.9245663,8.05084954 C25.1434096,8.24561616 25.4620602,8.34254862 25.8823494,8.34254862 C26.2183976,8.34254862 26.5141566,8.30738243 26.7705422,8.23659919 C27.0269277,8.16716849 27.297506,8.07429367 27.5831928,7.95797472 C27.7173373,8.12343617 27.8084458,8.32316213 27.8542289,8.55940682 C27.9004699,8.79474982 27.9238193,9.04542168 27.9238193,9.31006984 C27.7805181,9.37679544 27.6147831,9.43630746 27.4256988,9.49086015 C27.2370723,9.54406029 27.0415783,9.589596 26.8396747,9.62701644 C26.6382289,9.66443688 26.4367831,9.6923895 26.2353373,9.71403023 C26.0338916,9.73386757 25.8525904,9.74468794 25.6932651,9.74468794 C25.180494,9.74468794 24.7418916,9.68247083 24.3765422,9.5589383 C24.0111928,9.43405322 23.7085663,9.25867309 23.4691205,9.03144537 C23.2296747,8.80466849 23.0534096,8.52649487 22.9398675,8.20008045 C22.8267831,7.87276432 22.7695542,7.51163455 22.7695542,7.11398603 C22.7695542,6.60948639 22.8579157,6.11265117 23.0341807,5.62528377 C23.2113614,5.13746552 23.4608795,4.70014233 23.7845663,4.31556842 C24.1073373,3.93189622 24.5029036,3.62081064 24.9689759,3.38546764 C25.4350482,3.14922295 25.9578916,3.0320023 26.5379639,3.0320023 C26.814494,3.0320023 27.0731687,3.06401255 27.3126145,3.13073815 C27.5520602,3.19746376 27.7594578,3.29845385 27.9366386,3.43461015 C28.1129036,3.57121729 28.2511687,3.73893299 28.3523494,3.93775725 C28.4526145,4.13567981 28.5029759,4.36786687 28.5029759,4.63251503 C28.5029759,5.00401432 28.4150723,5.32727281 28.2383494,5.60003624 C28.0620843,5.87370138 27.826759,6.10453589 27.5328313,6.29479402 C27.2384458,6.48550301 26.9046867,6.64104579 26.5310964,6.76006984 C26.157506,6.88044643 25.7688072,6.96926361 25.3654578,7.02652139 L24.5212169,7.16403023 Z M25.2395542,5.89759636 C25.5591205,5.84845385 25.8196265,5.78443335 26.0210723,5.70598568 C26.2225181,5.62708716 26.3818434,5.54007337 26.4999639,5.44539516 C26.6171687,5.35026609 26.6972892,5.25243193 26.7394096,5.15369607 C26.7810723,5.05450937 26.8025904,4.95442097 26.8025904,4.85568511 C26.8025904,4.69833893 26.7494819,4.56984707 26.6446386,4.47066036 C26.5393373,4.3719245 26.3987831,4.32233115 26.2225181,4.32233115 C26.0041325,4.32233115 25.8045181,4.37012111 25.6241325,4.46479933 C25.4432892,4.55992839 25.2857952,4.68571517 25.1511928,4.8435122 C25.0170482,4.99995668 24.9016747,5.18074699 24.8046145,5.38272719 C24.7084699,5.58560909 24.6352169,5.79074523 24.5843976,5.99678306 L25.2395542,5.89759636 Z" id="Fill-10" fill="#94A5C9"></path>
                <path d="M30.4687663,6.76624646 C30.3341639,6.71665311 30.1995614,6.65308345 30.0654169,6.57418494 C29.9308145,6.49573727 29.8072,6.39655057 29.6936578,6.27662482 C29.5801157,6.15624823 29.4880916,6.00972242 29.4166699,5.83614569 C29.3447904,5.66256895 29.3095373,5.45562942 29.3095373,5.21532709 C29.3095373,4.86772277 29.3786699,4.55979314 29.5169349,4.29108734 C29.6561157,4.02238154 29.8488627,3.79425212 30.0970072,3.60850248 C30.344694,3.42275283 30.6345012,3.27938296 30.9664289,3.18019625 C31.2983566,3.0814604 31.6572964,3.03186704 32.043706,3.03186704 C32.1783084,3.03186704 32.3252723,3.03817893 32.4845976,3.04990099 C32.6443807,3.0620739 32.8059952,3.0814604 32.9698988,3.10580622 C33.1338024,3.13105375 33.2931277,3.16621994 33.4487904,3.21175566 C33.6039952,3.25729137 33.7450072,3.31274576 33.870453,3.37947136 C33.8539711,3.59452617 33.8141398,3.80732673 33.750959,4.0183239 C33.6882361,4.22841938 33.5852241,4.44167079 33.4423807,4.6567256 C33.2661157,4.56565417 33.0518506,4.49216584 32.7995855,4.43355552 C32.5477783,4.37584689 32.3083325,4.34654173 32.081706,4.34654173 C31.9887663,4.34654173 31.8866699,4.354657 31.7726699,4.37178925 C31.6591277,4.3880198 31.5519952,4.41732496 31.4517301,4.45880304 C31.3505494,4.50028112 31.2663084,4.56159653 31.1994651,4.64455269 C31.1321639,4.72750884 31.0987422,4.83030233 31.0987422,4.95473656 C31.0987422,5.20315417 31.2585253,5.39792079 31.5771759,5.53813472 L32.0688867,5.74958274 C32.228212,5.8149558 32.3838747,5.89160007 32.534959,5.97861386 C32.6865012,6.0651768 32.8206458,6.17157709 32.9387663,6.29465877 C33.0559711,6.41864215 33.1502843,6.56426627 33.2221639,6.72882603 C33.2931277,6.89428748 33.3292964,7.08950495 33.3292964,7.31267504 C33.3292964,7.7265541 33.2450554,8.08407709 33.0770313,8.38614569 C32.9090072,8.68776344 32.6823807,8.94023868 32.396694,9.14221888 C32.1110072,9.34510078 31.7726699,9.49658593 31.3825976,9.59577263 C30.9916096,9.69495934 30.578188,9.74410184 30.140959,9.74410184 C29.8717542,9.74410184 29.5741639,9.71795262 29.2463566,9.66430163 C28.9185494,9.60974894 28.6246217,9.52994873 28.3645735,9.4221959 C28.3897542,8.94249293 28.5156578,8.49615276 28.7422843,8.08182284 C29.0027904,8.1981418 29.269706,8.27884371 29.5421157,8.32392857 C29.815441,8.36991513 30.0782361,8.39200672 30.3295855,8.39200672 C30.455947,8.39200672 30.5900916,8.38028465 30.7333928,8.35458628 C30.8757783,8.33024045 31.0062602,8.28876238 31.1239229,8.23105375 C31.2415855,8.17334512 31.3395614,8.09219236 31.4196819,7.98894802 C31.4998024,7.88525283 31.5396337,7.75901521 31.5396337,7.610686 C31.5396337,7.44477369 31.4810313,7.31087164 31.3633687,7.2076273 C31.245706,7.10393211 31.0818024,7.01060644 30.8716578,6.92765028 L30.4687663,6.76624646 Z" id="Fill-12" fill="#94A5C9"></path>
                <path d="M38.2429711,8.07014586 C38.3349952,8.21802422 38.4105373,8.39610944 38.4700554,8.60349982 C38.5286578,8.81043936 38.557959,9.08275194 38.557959,9.42224098 C38.289212,9.53855994 38.0035253,9.62061439 37.7008988,9.67065859 C37.399188,9.7198011 37.0668024,9.74459777 36.7055735,9.74459777 C35.7477904,9.74459777 35.0463928,9.51466496 34.6009229,9.05570103 C34.1559108,8.59718794 33.932947,7.96599982 33.932947,7.16394006 C33.932947,6.67567097 34.0153566,6.18514763 34.1797181,5.69327175 C34.342706,5.20139586 34.584441,4.75911333 34.9040072,4.3659733 C35.2231157,3.97328412 35.6154771,3.65227988 36.0824651,3.40341142 C36.5485373,3.15634636 37.0878627,3.03236298 37.7008988,3.03236298 C37.9861277,3.03236298 38.2640313,3.05220032 38.5332361,3.09322755 C38.8019831,3.13515647 39.057453,3.20188207 39.3019349,3.2920518 C39.2932361,3.50755746 39.2547783,3.73703943 39.1879349,3.9813994 C39.1206337,4.22485767 39.0157904,4.45884813 38.872947,4.68156736 C38.688441,4.60717733 38.5048506,4.54946871 38.3249229,4.50844148 C38.1440795,4.46651255 37.9449229,4.44532267 37.7265373,4.44532267 C37.399188,4.44532267 37.1135012,4.518811 36.8694771,4.66353342 C36.6259108,4.80825583 36.4217181,4.99851397 36.2587301,5.23430781 C36.0948265,5.46965081 35.9725855,5.7410617 35.8929229,6.04763879 C35.8128024,6.35286333 35.7725133,6.67116248 35.7725133,7.00298709 C35.7725133,7.45699169 35.8910916,7.79242309 36.125959,8.00702705 C36.3612843,8.22253271 36.6597904,8.33028554 37.0205614,8.33028554 C37.2050675,8.33028554 37.3882,8.31315329 37.5690434,8.28024134 C37.7489711,8.24778023 37.9742241,8.17654615 38.2429711,8.07014586" id="Fill-14" fill="#94A5C9"></path>
                <path d="M44.6816819,6.81574965 C44.5892,7.33783239 44.521441,7.79814887 44.480694,8.20030587 C44.4376578,8.60111033 44.4170554,8.9130976 44.4170554,9.13581683 L44.4170554,9.36665134 C44.4170554,9.42796676 44.4211759,9.49694661 44.4294169,9.57043494 C44.1524289,9.62092999 43.8795614,9.64482496 43.6112723,9.64482496 C43.3750313,9.64482496 43.1149831,9.62092999 42.8297542,9.57043494 C42.8132723,9.50506188 42.7958747,9.42616337 42.7793928,9.33509194 C42.7619952,9.24447136 42.7537542,9.10786421 42.7537542,8.92527051 L42.7537542,8.68992751 C42.7537542,8.60697136 42.7619952,8.51229314 42.7793928,8.40363861 C42.5353687,8.78505658 42.224959,9.10380658 41.8472482,9.36033946 C41.4686217,9.61597065 41.028188,9.74446252 40.5241157,9.74446252 C39.9692241,9.74446252 39.5535133,9.57043494 39.2756096,9.22328147 C38.9990795,8.87567716 38.8603566,8.41716407 38.8603566,7.84593883 C38.8603566,7.22557107 38.9551277,6.62594236 39.1432964,6.04750354 C39.3323807,5.46771216 39.6144048,4.95464639 39.9879952,4.50830622 C40.3615855,4.06196605 40.8258265,3.70354137 41.3807181,3.43483557 C41.9356096,3.16612977 42.5816096,3.03177687 43.3205494,3.03177687 C43.6909349,3.03177687 44.0356819,3.0561227 44.3547904,3.10571605 C44.6729831,3.1562111 44.9884289,3.2256418 45.2988386,3.31671322 L44.6816819,6.81574965 Z M43.3832723,4.50830622 C43.3086458,4.49207567 43.2349349,4.4812553 43.1639711,4.47719767 C43.0916337,4.47314003 43.0225012,4.47088579 42.9556578,4.47088579 C42.5527663,4.47088579 42.2103084,4.57007249 41.9287422,4.76889675 C41.6476337,4.967721 41.4141398,5.21523692 41.2300916,5.51324788 C41.044212,5.81080799 40.9100675,6.13226308 40.8258265,6.47535891 C40.7420434,6.81890559 40.7003807,7.13089286 40.7003807,7.41177157 C40.7003807,8.02447489 40.905947,8.33060113 41.3179952,8.33060113 C41.7204289,8.33060113 42.0944771,8.08804455 42.4392241,7.60428395 C42.7835133,7.12052334 43.0344048,6.44019272 43.1946458,5.56239038 L43.3832723,4.50830622 Z" id="Fill-16" fill="#94A5C9"></path>
                <path d="M50.4403301,6.93991337 C50.3560892,7.41150106 50.2823783,7.81140382 50.2210289,8.1373674 C50.1578482,8.46468352 50.1258,8.77667079 50.1258,9.07468175 C50.1258,9.19100071 50.1276313,9.28387553 50.1326675,9.35330622 C50.1372458,9.42408946 50.1468602,9.50479137 50.1638,9.5958628 C50.1134386,9.60397808 50.0447639,9.60983911 49.9564024,9.61389675 C49.8671253,9.61795438 49.794788,9.62111033 49.734812,9.62111033 C49.6849084,9.62111033 49.6157759,9.61795438 49.5278723,9.61389675 C49.4395108,9.60983911 49.3744988,9.60397808 49.3319205,9.5958628 C49.3145229,9.5300389 49.3044506,9.4633133 49.3003301,9.39703854 C49.2957518,9.33121464 49.2939205,9.24014321 49.2939205,9.12427511 C49.2939205,9.06656648 49.2984988,8.98992221 49.3062819,8.89479314 C49.3145229,8.80011492 49.3278,8.69822313 49.3451976,8.59092115 C49.3621373,8.48271747 49.3804506,8.37586634 49.4005952,8.26766266 C49.4221133,8.16081153 49.4454627,8.06162482 49.4706434,7.97010255 C49.3946434,8.14367928 49.2838482,8.33258487 49.1359687,8.53456506 C48.9894627,8.73744696 48.8109084,8.93041018 48.6007639,9.11210219 C48.3915349,9.2937942 48.1562096,9.44527935 47.8952458,9.56430339 C47.6347398,9.68467999 47.3495108,9.74419201 47.0377277,9.74419201 C46.4842096,9.74419201 46.0634627,9.56024576 45.7786916,9.1928041 C45.492547,8.82446075 45.3506193,8.30914074 45.3506193,7.64774576 C45.3506193,7.08553748 45.4403542,6.53324788 45.6211976,5.99087694 C45.8011253,5.44940771 46.0675831,4.9656471 46.4210289,4.53959512 C46.7731012,4.11354314 47.2121614,3.76999646 47.7377518,3.50985679 C48.2624265,3.24926627 48.8695108,3.118971 49.558547,3.118971 C49.6675108,3.118971 49.7902096,3.12483204 49.9234386,3.13700495 C50.0589566,3.14917786 50.1761614,3.16450672 50.2768843,3.18028642 C50.3602096,2.70869873 50.4339205,2.29572136 50.497559,1.93955092 C50.5607398,1.58383133 50.5918723,1.25651521 50.5918723,0.959856789 L50.5918723,0.699266266 C50.5918723,0.640655941 50.5877518,0.56716761 50.5804265,0.475194484 C50.6289566,0.467079208 50.7026675,0.460767327 50.7992699,0.457160537 C50.8954145,0.4531029 50.9737036,0.450848656 51.0336795,0.450848656 L51.2337518,0.450848656 C51.3179928,0.450848656 51.3820892,0.454906294 51.4237518,0.46302157 C51.4319928,0.554092999 51.4365711,0.634794908 51.4365711,0.705127298 L51.4365711,0.90936174 C51.4365711,1.00945014 51.4297036,1.13343352 51.4168843,1.28221358 C51.4040651,1.43054279 51.3857518,1.58608557 51.3614867,1.74748939 C51.3353904,1.90889321 51.3097518,2.07164958 51.2859446,2.23711103 C51.2598482,2.40302334 51.2337518,2.55225424 51.2099446,2.68480375 L50.4403301,6.93991337 Z M50.1761614,3.92463755 C49.9495349,3.86692893 49.658812,3.83762376 49.3062819,3.83762376 C48.8782096,3.83762376 48.4780651,3.93185113 48.103559,4.11760078 C47.729053,4.30335042 47.4039928,4.5616867 47.126547,4.89306047 C46.8491012,5.22443423 46.6311735,5.61306577 46.4718482,6.05940594 C46.3116072,6.50574611 46.2324024,6.99040842 46.2324024,7.51158946 C46.2324024,7.98317716 46.320306,8.35242221 46.4970289,8.62112801 C46.6728361,8.89118635 46.9292217,9.0250884 47.2652699,9.0250884 C47.5752217,9.0250884 47.8732699,8.92545085 48.1539205,8.72752829 C48.4345711,8.52825318 48.6891253,8.26360502 48.9171253,7.93268211 C49.1419205,7.60221004 49.3383301,7.22169378 49.5022337,6.79158416 C49.6656795,6.36147454 49.794788,5.91513437 49.8863542,5.45166195 L50.1761614,3.92463755 Z" id="Fill-18" fill="#94A5C9"></path>
                <path d="M52.167453,7.11385078 C52.167453,7.70942185 52.3135012,8.17650106 52.6083446,8.5159901 C52.9018145,8.85547914 53.3683446,9.02499823 54.0070193,9.02499823 C54.1658867,9.02499823 54.3339108,9.01237447 54.5106337,8.98757779 C54.6868988,8.96278112 54.8553807,8.93212341 55.0142482,8.89470297 C55.1735735,8.85728253 55.3255735,8.8180587 55.4684169,8.77658062 C55.6108024,8.73555339 55.7330434,8.69813296 55.8346819,8.66431931 C55.8754289,8.75674328 55.9074771,8.86584866 55.9289952,8.99434052 C55.9491398,9.12193069 55.9596699,9.23644625 55.9596699,9.33563296 C55.8420072,9.38432461 55.6968747,9.43391796 55.5247301,9.48396216 C55.3525855,9.53400636 55.1699108,9.57773868 54.9771639,9.61425743 C54.7835012,9.65167786 54.5866337,9.68233557 54.3842723,9.70803395 C54.1828265,9.73237977 53.9946578,9.74455269 53.8174771,9.74455269 C53.3385855,9.74455269 52.9375253,9.67827793 52.6147542,9.54663013 C52.2906096,9.41408062 52.0301036,9.23419201 51.8332361,9.00561174 C51.6363687,8.77883487 51.494441,8.5141867 51.4106578,8.21256895 C51.3264169,7.91050035 51.2856699,7.59039781 51.2856699,7.25135962 C51.2856699,6.74640912 51.3740313,6.24731966 51.5498386,5.75499293 C51.7265614,5.26356789 51.9710434,4.82218706 52.2864892,4.43400636 C52.6023928,4.04447313 52.979188,3.72887907 53.4200795,3.48451909 C53.8614289,3.24106082 54.3476458,3.11888083 54.8768988,3.11888083 C55.4304169,3.11888083 55.8488747,3.25323373 56.1295253,3.52193953 C56.4106337,3.79019448 56.5521036,4.11570721 56.5521036,4.49622348 C56.5521036,4.85149222 56.4642,5.15761846 56.2874771,5.41415134 C56.1107542,5.67023338 55.867188,5.88799328 55.5563205,6.0651768 C55.2459108,6.24281117 54.8787301,6.39068953 54.4543205,6.50565594 C54.029453,6.62197489 53.5739108,6.71710396 53.0863205,6.79149399 L52.167453,6.9398232 L52.167453,7.11385078 Z M52.9855976,6.13415665 C53.8348747,6.00205799 54.4950675,5.8149558 54.971212,5.57555516 C55.4446096,5.33570368 55.6826819,5.00027228 55.6826819,4.56971181 C55.6826819,4.34654173 55.6025614,4.16665311 55.4423205,4.03094767 C55.2829952,3.89388967 55.0481277,3.82581153 54.7368024,3.82581153 C54.4360072,3.82581153 54.1539831,3.89388967 53.8934771,4.03094767 C53.6329711,4.16665311 53.3958145,4.34654173 53.1806337,4.56971181 C52.9672843,4.79378359 52.7827783,5.05257072 52.6266578,5.34562235 C52.4709952,5.63912482 52.3560795,5.93939003 52.2800795,6.24551627 L52.9855976,6.13415665 Z" id="Fill-20" fill="#94A5C9"></path>
                <path d="M58.7814217,6.49370845 C58.6568916,6.4441151 58.5190843,6.38460308 58.3721205,6.31381984 C58.2256145,6.24348745 58.0882651,6.14835838 57.9632771,6.02798179 C57.8373735,5.90895774 57.7311566,5.76153023 57.6473735,5.5879535 C57.5631325,5.41437677 57.5223855,5.19887111 57.5223855,4.94278907 C57.5223855,4.38824523 57.7398554,3.94596269 58.1766265,3.61458893 C58.6133976,3.28456772 59.2181928,3.11865541 59.9919277,3.11865541 C60.3865783,3.11865541 60.7285783,3.16238773 61.0188434,3.24895067 C61.3086506,3.33596446 61.5123855,3.41260873 61.6300482,3.47843264 C61.587012,3.60241602 61.5421446,3.71873497 61.4908675,3.8255861 C61.4418795,3.93378978 61.3819036,4.04469855 61.3146024,4.1610175 C61.1973976,4.10330888 61.0106024,4.03477988 60.7551325,3.95588136 C60.4982892,3.8774337 60.2098554,3.83775902 59.8912048,3.83775902 C58.8995422,3.83775902 58.4041687,4.17724806 58.4041687,4.85577528 C58.4041687,5.10419289 58.4778795,5.30031206 58.6243855,5.44548533 C58.7718072,5.5897569 59.0336867,5.73628271 59.4123133,5.88596446 L59.5382169,5.93510697 C59.7066988,6.00183257 59.8829639,6.0735175 60.0674699,6.15241602 C60.2519759,6.23131453 60.4222892,6.33185378 60.5779518,6.45628801 C60.7326988,6.58072224 60.8608916,6.73220739 60.9616145,6.90939091 C61.0618795,7.08747613 61.1131566,7.30884282 61.1131566,7.57304013 C61.1131566,7.96167168 61.0417349,8.29304544 60.8988916,8.56580888 C60.756506,8.83857231 60.5628434,9.06264409 60.3197349,9.23622083 C60.0757108,9.41024841 59.7927711,9.53783858 59.4686265,9.62124558 C59.1453976,9.70284919 58.7988193,9.74387641 58.4288916,9.74387641 C58.0429398,9.74387641 57.6881205,9.7141204 57.3644337,9.65100159 C57.0402892,9.58968617 56.7948916,9.51709954 56.628241,9.43414339 C56.668988,9.15371552 56.7532289,8.90935555 56.8791325,8.70196517 C56.9633735,8.74344325 57.0709639,8.78311793 57.2000723,8.82053837 C57.3314699,8.85750796 57.4688193,8.88906736 57.6166988,8.91341319 C57.7632048,8.93820987 57.9078795,8.95849806 58.0511807,8.97517946 C58.1940241,8.99186086 58.3281687,8.99997613 58.4545301,8.99997613 C59.0089639,8.99997613 59.4397831,8.90935555 59.7451566,8.72766354 C60.0528193,8.54552069 60.2057349,8.22677069 60.2057349,7.77186439 C60.2057349,7.44094148 60.1155422,7.20063914 59.9356145,7.05230994 C59.7533976,6.90352988 59.5002169,6.76647189 59.1733253,6.64203766 L58.7814217,6.49370845 Z" id="Fill-22" fill="#94A5C9"></path>
                <path d="M63.1540771,3.96205799 L62.3734747,3.96205799 C62.3734747,3.84664074 62.3840048,3.73077263 62.4055229,3.61445368 C62.4261253,3.49948727 62.4526795,3.38361917 62.4874747,3.26730021 L64.0994988,3.26730021 L62.977812,9.5958628 C62.9283663,9.60397808 62.8564867,9.60983911 62.7644627,9.61389675 C62.6719807,9.61795438 62.5964386,9.62111033 62.5369205,9.62111033 C62.4874747,9.62111033 62.4197157,9.61795438 62.3359325,9.61389675 C62.2516916,9.60983911 62.188053,9.60397808 62.1468482,9.5958628 L63.1540771,3.96205799 Z" id="Fill-24" fill="#94A5C9"></path>
                <path d="M68.3457928,7.96974187 C68.2711663,8.14376945 68.1580819,8.33267504 68.0124916,8.53420438 C67.8650699,8.73708628 67.6869735,8.93050035 67.4768289,9.11174151 C67.2666843,9.29388437 67.031359,9.44491867 66.7713108,9.56439356 C66.510347,9.68477016 66.2242024,9.74473303 65.9142506,9.74473303 C65.3602747,9.74473303 64.9399855,9.56033593 64.6533831,9.19244342 C64.3681542,8.82455092 64.2257687,8.30923091 64.2257687,7.64783593 C64.2257687,7.0851768 64.3159614,6.5328872 64.496347,5.99051627 C64.6767325,5.44904703 64.9445639,4.96573727 65.297094,4.53968529 C65.6500819,4.11318246 66.0886843,3.77053748 66.6138169,3.50949611 C67.1389494,3.24890559 67.7460337,3.11861033 68.4341542,3.11861033 C68.6946602,3.11861033 68.9725639,3.14115276 69.2655759,3.18668847 C69.5599614,3.23177334 69.7948289,3.28812942 69.971094,3.35395332 L68.8370458,9.59550212 C68.7445639,10.0923373 68.6062988,10.5292097 68.4217928,10.9047666 C68.2363711,11.2812252 67.9914313,11.5968193 67.6846843,11.8533522 C67.3779373,12.1103359 67.0075518,12.3028483 66.5749012,12.4313402 C66.1427084,12.559832 65.6368048,12.6229508 65.0571904,12.6229508 C64.8644434,12.6229508 64.6263711,12.6008593 64.3457205,12.5557744 C64.0636964,12.5097878 63.8182988,12.4412588 63.6081542,12.3506383 C63.6081542,12.2343193 63.6319614,12.1103359 63.6768289,11.9782373 C63.7239855,11.8461386 63.7711422,11.7383858 63.8224193,11.6558805 C64.0073831,11.7135891 64.2102024,11.764535 64.4336241,11.8105216 C64.6552145,11.8556064 64.9019855,11.8785997 65.1698169,11.8785997 C65.6500819,11.8785997 66.0520578,11.8276538 66.3803229,11.7230569 C66.7081301,11.6207143 66.9814554,11.4674257 67.1993831,11.2654455 C67.4182265,11.061662 67.5903711,10.8118918 67.715359,10.5138808 C67.8421783,10.215419 67.9470217,9.86826556 68.0312627,9.47151874 L68.3457928,7.96974187 Z M69.0513108,3.92427687 C68.8246843,3.86701909 68.5357928,3.83771393 68.1832627,3.83771393 C67.7542747,3.83771393 67.3522988,3.93149045 66.9787084,4.11769095 C66.6046602,4.30298975 66.2796,4.56177687 66.002612,4.89269979 C65.7247084,5.22407355 65.5063229,5.61270509 65.3465398,6.05904526 C65.1876723,6.50538543 65.1075518,6.99049859 65.1075518,7.51122878 C65.1075518,7.98281648 65.1977446,8.35296322 65.3795036,8.62121818 C65.5598892,8.89082567 65.8130699,9.02562942 66.1404193,9.02562942 C66.4517446,9.02562942 66.7470458,8.92509017 67.0290699,8.72761846 C67.311094,8.52834335 67.5642747,8.26369519 67.7909012,7.93232143 C68.0189012,7.60275106 68.2134795,7.22178395 68.377841,6.79167433 C68.5417446,6.36156471 68.6690217,5.91477369 68.7610458,5.45175212 L69.0513108,3.92427687 Z" id="Fill-26" fill="#94A5C9"></path>
                <path d="M70.7650651,5.8977767 C70.849306,5.426189 70.9230169,5.02718794 70.9861976,4.70032267 C71.0489205,4.37390824 71.0805108,4.06192097 71.0805108,3.76391001 C71.0805108,3.6480419 71.0786795,3.55516708 71.074559,3.48438384 C71.0704386,3.4145023 71.0594506,3.33380039 71.0425108,3.24317981 C71.0933301,3.23416284 71.1629205,3.22785095 71.2508241,3.22379332 C71.3391855,3.21973568 71.4128964,3.21793228 71.4705831,3.21793228 C71.5218602,3.21793228 71.5914506,3.21973568 71.679812,3.22379332 C71.7672578,3.22785095 71.8327277,3.23416284 71.8743904,3.24317981 C71.8908723,3.30855286 71.9009446,3.3811395 71.9055229,3.46003801 C71.9096434,3.53893653 71.9123904,3.63586899 71.9123904,3.7508354 C71.9123904,3.96589021 71.8949928,4.17328059 71.8620289,4.37210484 C71.8281494,4.5700274 71.7906072,4.74360414 71.7480289,4.89283504 C71.8240289,4.71925831 71.9380289,4.53170527 72.0891133,4.32837252 C72.2397398,4.12549063 72.4201253,3.93387995 72.6302699,3.7508354 C72.8404145,3.56914339 73.0784867,3.41855994 73.3431133,3.29863419 C73.6077398,3.1782576 73.8948,3.11874558 74.2052096,3.11874558 C74.7088241,3.11874558 75.102559,3.25535272 75.3836675,3.52766531 C75.6647759,3.80133045 75.8062458,4.20258575 75.8062458,4.73143122 C75.8062458,4.85586545 75.7980048,4.99607938 75.7806072,5.15342557 C75.7632096,5.3112226 75.7426072,5.4595518 75.7174265,5.59976574 L75.0123663,9.59563738 C74.9610892,9.60375265 74.8924145,9.61006453 74.804053,9.61412217 C74.7161494,9.61817981 74.6424386,9.6208849 74.5838361,9.6208849 C74.532559,9.6208849 74.4638843,9.61817981 74.3755229,9.61412217 C74.2871614,9.61006453 74.2226072,9.60375265 74.1795711,9.59563738 L74.8484627,5.84818335 C74.8731855,5.69985414 74.8947036,5.54656559 74.9121012,5.38876856 C74.9285831,5.23232408 74.9363663,5.09616779 74.9363663,4.97984883 C74.9363663,4.58310202 74.8397639,4.29906736 74.6470169,4.12954827 C74.4524386,3.96002917 74.2052096,3.87526963 73.903041,3.87526963 C73.6013301,3.87526963 73.3119807,3.97310378 73.0395711,4.16696871 C72.7667036,4.36173533 72.5162699,4.62232585 72.2910169,4.94874028 C72.0634747,5.27560555 71.8684386,5.65251503 71.7045349,6.07766531 C71.5397157,6.50371729 71.4170169,6.94915576 71.3332337,7.41172649 L70.9413301,9.59563738 C70.8923422,9.60375265 70.822294,9.61006453 70.7343904,9.61412217 C70.6460289,9.61817981 70.5723181,9.6208849 70.5137157,9.6208849 C70.4633542,9.6208849 70.393306,9.61817981 70.3058602,9.61412217 C70.2174988,9.61006453 70.1520289,9.60375265 70.1108241,9.59563738 L70.7650651,5.8977767 Z" id="Fill-28" fill="#94A5C9"></path>
            </g>
        </g>
    </g>
</svg>