<?xml version="1.0" encoding="UTF-8"?>
<svg width="23px" height="22px" viewBox="0 0 23 22" version="1.1" xmlns="http://www.w3.org/2000/svg" xmlns:xlink="http://www.w3.org/1999/xlink">
    <title>debug</title>
    <g id="debug" stroke="none" stroke-width="1" fill="none" fill-rule="evenodd">
        <g id="run_debug-(1)" fill="#474D84" fill-rule="nonzero">
            <path d="M11.6875,0 C10.538128,0 9.53123971,0.6953125 9.05819245,1.71875 C9.83900573,1.5566405 10.7129085,1.46875 11.6875,1.46875 C12.6639916,1.46875 13.5359943,1.5566405 14.3168076,1.71875 C13.84566,0.6953125 12.8425715,0 11.6875,0 Z M11.6875,2.46875001 C8.86441425,2.46875001 5.82095254,3.234375 5.82095254,6 C5.82095254,6.59765651 5.9007439,7.10937501 6.04892718,7.5625 C6.44028389,7.6015625 6.83923928,7.7246095 7.32558518,7.859375 C8.25268206,8.1171875 9.65472635,8.5 11.6875,8.5 C13.5378944,8.5 14.8601474,8.2109375 15.8214402,8 C16.3799783,7.876953 16.8321278,7.7851565 17.2652796,7.765625 C17.4609579,7.2695315 17.5540475,6.68359401 17.5540475,6 C17.5540475,3.234375 14.5105862,2.46875001 11.6875,2.46875001 Z M0.987890117,2.5 C0.720020034,2.5 0.501544214,2.7246095 0.501544214,3 C0.501544214,5.88476549 1.13987321,7.9570315 2.4013329,9.17187501 C3.15364922,9.8945315 3.9496608,10.1328125 4.43790637,10.203125 C4.39611127,10.736328 4.39231144,11.386719 4.39231144,12.234375 C4.39231144,12.3164065 4.40561008,12.4003905 4.40750975,12.484375 L0.501544214,12.484375 C0.227974643,12.484375 0,12.71875 0,13 C0,13.28125 0.227974643,13.515625 0.501544214,13.515625 L4.46830299,13.515625 C4.57469115,14.4140624 4.80646562,15.308594 5.13702861,16.15625 C3.90596554,16.4589844 0.501544214,17.625 0.501544214,21.5 C0.501544214,21.7773441 0.720020034,22 0.987890117,22 C1.2557602,22 1.47423602,21.7773441 1.47423602,21.5 C1.47423602,18.0625 4.76087069,17.2148439 5.54738297,17.0625 C6.65495989,19.2382816 8.54714942,20.96875 11.2011541,21.4218751 L11.2011541,13 C11.2011541,12.7226565 11.4196299,12.5 11.6875,12.5 C11.9553701,12.5 12.1738459,12.7226565 12.1738459,13 L12.1738459,21.4218751 C14.8278505,20.96875 16.7352384,19.2539065 17.8428154,17.0781249 C18.6730229,17.2441405 21.9007639,18.0996096 21.9007639,21.5 C21.9007639,21.7773441 22.1173402,22 22.3871099,22 C22.6568801,22 22.8734558,21.7773441 22.8734558,21.5 C22.8734558,17.625 19.4690345,16.4589844 18.2379714,16.15625 C18.5685349,15.308594 18.8003089,14.4140624 18.906697,13.515625 L22.8734558,13.515625 C23.1470254,13.515625 23.375,13.28125 23.375,13 C23.375,12.71875 23.1470254,12.484375 22.8734558,12.484375 L18.9674903,12.484375 C18.9693899,12.4003905 18.9826886,12.3164065 18.9826886,12.234375 C18.9826886,11.404297 18.9788892,10.7382815 18.906697,10.203125 C19.3930429,10.136719 20.2080522,9.908203 20.9736671,9.17187501 C22.2351268,7.9570315 22.8734558,5.88476549 22.8734558,3 C22.8734558,2.7246095 22.6568801,2.5 22.3871099,2.5 C22.3206171,2.5 22.2636238,2.5214845 22.2047302,2.546875 C22.1458366,2.57226551 22.0812441,2.595703 22.0375488,2.64062501 C21.9501587,2.73046901 21.9007639,2.861328 21.9007639,3 C21.9007639,5.542969 21.3650238,7.41406249 20.3353381,8.421875 C19.6932098,9.05078151 19.0225839,9.18945301 18.709119,9.21874999 C18.6388269,9.2246095 18.6179291,9.234375 18.5875326,9.234375 C18.3576581,8.917969 17.9909991,8.74999999 17.4172626,8.74999999 C17.0373049,8.74999999 16.5927546,8.85742199 16.0190183,8.984375 C15.0159298,9.203125 13.6404828,9.5 11.6875,9.5 C9.52554072,9.5 8.04370555,9.0839845 7.06721392,8.8125 C6.50867628,8.65625001 6.11731957,8.546875 5.7601593,8.546875 C5.15032726,8.546875 4.80646562,8.74218751 4.62028608,9.203125 C4.29922192,9.1660155 3.67989057,9.03906251 3.07005852,8.453125 C2.02707465,7.449219 1.47423602,5.560547 1.47423602,3 C1.47423602,2.7246095 1.2557602,2.5 0.987890117,2.5 Z" id="Shape"></path>
        </g>
    </g>
</svg>