<?xml version="1.0" encoding="UTF-8"?>
<svg width="87px" height="17px" viewBox="0 0 87 17" version="1.1" xmlns="http://www.w3.org/2000/svg" xmlns:xlink="http://www.w3.org/1999/xlink">
    <title>starkware</title>
    <defs>
        <filter id="filter-1">
            <feColorMatrix in="SourceGraphic" type="matrix" values="0 0 0 0 0.705882 0 0 0 0 0.721569 0 0 0 0 0.890196 0 0 0 1.000000 0"></feColorMatrix>
        </filter>
        <path d="M83.0383965,4.89094548 L83.0383965,7.32522656 L86.5372363,7.32522656 L86.5372363,8.11381371 L83.0383965,8.11381371 L83.0383965,9.82813359 C83.0383965,10.7767239 83.4446731,11.1995363 84.3702004,11.1995363 L87,11.1995363 L87,12.0452675 L84.2121836,12.0452675 C82.5643459,12.0452675 82,11.4966851 82,9.91956399 L82,4.04526749 L87,4.04526749 L87,4.89094548 L83.0383965,4.89094548 Z" id="path-2"></path>
    </defs>
    <g id="Page-1" stroke="none" stroke-width="1" fill="none" fill-rule="evenodd">
        <g id="Lock-Memory-all-challenges-open" transform="translate(-28.000000, -1055.000000)">
            <g id="starkware" transform="translate(-2.000000, 0.000000)" filter="url(#filter-1)">
                <g transform="translate(30.000000, 1055.000000)">
                    <path d="M25,10.1023716 C25,11.3366819 24.2406492,12.0452675 22.7469024,12.0452675 L19.1742772,12.0452675 L19.1742772,10.5823812 L22.3235998,10.5823812 C22.7841896,10.5823812 23.0083182,10.4338068 23.0083182,10.0567096 C23.0083182,9.748132 22.7593508,9.55384241 22.2116223,9.19954963 L20.3444243,7.87380892 C19.3983479,7.21093857 19,6.59378341 19,5.86234026 C19,4.61665429 19.7966959,4.04526749 21.365133,4.04526749 L24.8506195,4.04526749 L24.8506195,5.50810064 L21.7136874,5.50810064 C21.2282009,5.50810064 20.9916818,5.65667503 20.9916818,6.0452542 C20.9916818,6.34240298 21.2406492,6.53669257 21.800826,6.87950339 L23.6555757,8.06809851 C24.6016521,8.66239607 25,9.38241042 25,10.1023716" id="Fill-1" fill="#FAFAF5"></path>
                    <polygon id="Fill-3" fill="#FAFAF5" points="32 5.50814407 29.9230934 5.50814407 29.9230934 12.0452675 28.0769066 12.0452675 28.0769066 5.50814407 26 5.50814407 26 4.04526749 32 4.04526749"></polygon>
                    <path d="M37.0908718,9.16526324 L36.0110194,5.99948585 L34.9200964,9.16526324 L37.0908718,9.16526324 Z M37.5536877,10.5023796 L34.4462611,10.5023796 L33.9173799,12.0452675 L32,12.0452675 L35.0743683,4.04526749 L36.9255804,4.04526749 L40,12.0452675 L38.0826713,12.0452675 L37.5536877,10.5023796 Z" id="Fill-5" fill="#FAFAF5"></path>
                    <path d="M43.6335813,7.81666493 C44.6412328,7.81666493 44.938948,7.46237215 44.938948,6.61669416 C44.938948,5.77096302 44.6412328,5.41667024 43.6335813,5.41667024 L42.8320403,5.41667024 L42.8320403,7.81666493 L43.6335813,7.81666493 Z M47,12.0452675 L45.1565091,12.0452675 L44.8015409,10.5138084 C44.5725292,9.45098322 44.3664187,9.16526324 43.5648778,9.15378128 L42.8320403,9.15378128 L42.8320403,12.0452675 L41,12.0452675 L41,4.04526749 L44.2862646,4.04526749 C45.9923485,4.04526749 46.7709883,4.79951508 46.7709883,6.44520902 C46.7709883,7.5538557 46.3358661,8.2281017 45.4542243,8.50239288 C46.0840065,8.79954166 46.393119,9.39383922 46.6450319,10.5138084 L47,12.0452675 Z" id="Fill-7" fill="#FAFAF5"></path>
                    <path d="M49.7948464,7.91957728 L52.6554138,4.04526749 L54.7980739,4.04526749 L51.791671,7.91957728 L55,12.0452675 L52.8573399,12.0452675 L49.7948464,7.91957728 Z M48,12.0452675 L49.7948464,12.0452675 L49.7948464,4.04526749 L48,4.04526749 L48,12.0452675 Z" id="Fill-9" fill="#FAFAF5"></path>
                    <polygon id="Fill-11" fill="#FAFAF5" points="67 4.04526749 64.5606278 12.0452675 63.4207094 12.0452675 61.4943004 5.64524623 59.5678384 12.0452675 58.4165739 12.0452675 56 4.04526749 57.11712 4.04526749 59.0207306 10.7995284 61.0383861 4.04526749 61.9502677 4.04526749 63.9679232 10.7995284 65.882933 4.04526749"></polygon>
                    <path d="M71.9160358,9.19954963 L70.5053188,5.18809426 L69.0839144,9.19954963 L71.9160358,9.19954963 Z M72.1832171,9.96527918 L68.8167332,9.96527918 L68.0793626,12.0452675 L67,12.0452675 L69.9816435,4.04526749 L71.0183068,4.04526749 L74,12.0452675 L72.9205877,12.0452675 L72.1832171,9.96527918 Z" id="Fill-13" fill="#FAFAF5"></path>
                    <path d="M77.701239,7.96523932 C79.0705022,7.96523932 79.5808855,7.47385411 79.5808855,6.39954698 C79.5808855,5.34809745 79.0705022,4.84528344 77.701239,4.84528344 L76.1451924,4.84528344 L76.1451924,7.96523932 L77.701239,7.96523932 Z M81,12.0452675 L79.8423013,12.0452675 L79.531092,10.6738116 C79.2198827,9.24526483 78.8339831,8.76525526 77.663836,8.74239767 L76.1451924,8.74239767 L76.1451924,12.0452675 L75,12.0452675 L75,4.04526749 L78.0871386,4.04526749 C79.9170494,4.04526749 80.7261358,4.78808628 80.7261358,6.30811658 C80.7261358,7.45094335 80.2157525,8.1481001 79.1451924,8.37667609 C79.9916818,8.67382487 80.3775813,9.34812403 80.6763423,10.6738116 L81,12.0452675 Z" id="Fill-15" fill="#FAFAF5"></path>
                    <mask id="mask-3" fill="white">
                        <use xlink:href="#path-2"></use>
                    </mask>
                    <use id="Fill-17" fill="#FAFAF5" xlink:href="#path-2"></use>
                    <path d="M7.48901876,9.07126749 L6.16356986,10.4850808 C6.16271986,10.4858808 6.16191987,10.4867875 6.16091987,10.4874275 C6.15766987,10.4896675 6.15376987,10.4909475 6.14961988,10.4909475 C6.13811988,10.4909475 6.12876989,10.4809742 6.12876989,10.4686542 C6.12876989,10.4662008 6.12911989,10.4637475 6.12986989,10.4615075 C6.12986989,10.4614542 6.12976989,10.4617208 6.12976989,10.4616675 L6.63406947,8.45521416 C6.67706944,8.31137416 6.64511946,8.14764082 6.53811955,8.03356082 L5.21267066,6.61969416 C5.21192066,6.61878749 5.21112066,6.61793416 5.21047066,6.61686749 C5.20842066,6.61345416 5.20717066,6.60929416 5.20717066,6.60486749 C5.20717066,6.59254749 5.21652065,6.58257416 5.22807064,6.58257416 C5.23042064,6.58257416 5.23267064,6.58300082 5.23477064,6.58374749 C5.23482064,6.58380082 5.23462064,6.58364082 5.23462064,6.58364082 L7.11571907,7.12161416 C7.25051896,7.16748082 7.40401883,7.13340082 7.51096874,7.01926749 L8.83646764,5.60550749 C8.83731764,5.60465416 8.83811763,5.60374749 8.83911763,5.60310749 C8.84236763,5.60086749 8.84621763,5.59958749 8.85041762,5.59958749 C8.86191762,5.59958749 8.87126761,5.60956082 8.87126761,5.62188082 C8.87126761,5.62438749 8.87086761,5.62678749 8.87016761,5.62902749 C8.87016761,5.62902749 8.87026761,5.62886749 8.87026761,5.62886749 L8.36596803,7.63532082 C8.32296806,7.77910749 8.35491804,7.94289416 8.46186795,8.05697416 L9.78731684,9.47084082 C9.78811684,9.47174749 9.78891684,9.47260082 9.78951684,9.47361416 C9.79161684,9.47708082 9.79286684,9.48124082 9.79286684,9.48566749 C9.79286684,9.49793416 9.78346685,9.50790749 9.77196686,9.50790749 C9.76961686,9.50790749 9.76736686,9.50753416 9.76526686,9.50678749 C9.76521686,9.50678749 9.76541686,9.50684082 9.76536686,9.50684082 L7.88431843,8.96892082 C7.74951854,8.92305416 7.59596867,8.95718749 7.48901876,9.07126749 M14.9428125,7.89793416 L11.7768652,4.52097416 C11.6699153,4.40689416 11.5164154,4.37276082 11.3816155,4.41862749 L9.29971725,5.01414749 C9.29946725,5.01409416 9.29941725,5.01377416 9.29901725,5.01393416 C9.29706725,5.01457416 9.29496725,5.01494749 9.29276726,5.01494749 C9.28126727,5.01494749 9.27191727,5.00497416 9.27191727,4.99265416 C9.27191727,4.98476082 9.27571727,4.97788082 9.28151727,4.97393416 C9.28156727,4.97388082 9.28131727,4.97393416 9.28131727,4.97393416 C9.50856708,4.81270749 9.85316679,4.52097416 10.6769161,3.64230749 C10.753166,3.56097416 10.753166,3.42902749 10.6769161,3.34764082 L7.63811863,0.10630749 C7.5618687,0.024920823 7.4381688,0.024920823 7.36191887,0.10630749 L4.1959715,3.48326749 C4.08902159,3.59734749 4.05707162,3.76113416 4.10007158,3.90492082 L4.65832112,6.12556082 C4.65827112,6.12582749 4.65802112,6.12588082 4.65812112,6.12636082 C4.65877112,6.12844082 4.65907112,6.13068082 4.65907112,6.13297416 C4.65907112,6.14529416 4.64972113,6.15526749 4.63817113,6.15526749 C4.63082114,6.15526749 4.62432115,6.15116082 4.62062115,6.14497416 C4.62057115,6.14497416 4.62062115,6.14518749 4.62062115,6.14518749 C4.46947128,5.90278749 4.1959715,5.53526749 3.37227219,4.65660082 C3.29597225,4.57521416 3.17227236,4.57521416 3.09602242,4.65660082 L0.0572249523,7.89793416 C-0.0190749841,7.97932082 -0.0190749841,8.11126749 0.0572249523,8.19260082 L3.22312231,11.5695608 C3.33007222,11.6836408 3.4836221,11.7177742 3.61842198,11.6719075 L5.70032025,11.0763875 C5.70057025,11.0764408 5.70057025,11.0767608 5.70102025,11.0766008 C5.70297025,11.0759608 5.70507025,11.0755875 5.70722024,11.0755875 C5.71877023,11.0755875 5.72812023,11.0855608 5.72812023,11.0978808 C5.72812023,11.1057208 5.72432023,11.1126542 5.71852023,11.1166542 C5.71847023,11.1166542 5.71872023,11.1166008 5.71872023,11.1166542 C5.49142042,11.2778275 5.14687071,11.5695608 4.3231214,12.4482275 C4.24682146,12.5296142 4.24682146,12.6615075 4.3231214,12.7428942 L7.36191887,15.9842275 C7.4381688,16.0656142 7.5618687,16.0656142 7.63811863,15.9842275 L10.804016,12.6072675 C10.9109659,12.4931875 10.9429659,12.3294008 10.8999659,12.1856142 L10.3417164,9.96497416 C10.3417164,9.96465416 10.3420164,9.96465416 10.3418664,9.96422749 C10.3412664,9.96209416 10.3409664,9.95990749 10.3409664,9.95756082 C10.3409664,9.94524082 10.3503164,9.93526749 10.3618164,9.93526749 C10.3692164,9.93526749 10.3757164,9.93937416 10.3794164,9.94556082 C10.3794164,9.94556082 10.3794164,9.94534749 10.3794164,9.94534749 C10.5305162,10.1877475 10.804016,10.5553208 11.6277653,11.4339342 C11.7040652,11.5153208 11.8277151,11.5153208 11.9040151,11.4339342 L14.9428125,8.19260082 C15.0190625,8.11126749 15.0190625,7.97932082 14.9428125,7.89793416" id="Fill-20" fill="#FAFAF5"></path>
                </g>
            </g>
        </g>
    </g>
</svg>