<?xml version="1.0" encoding="UTF-8"?>
<svg width="10px" height="24px" viewBox="0 0 10 24" version="1.1" xmlns="http://www.w3.org/2000/svg" xmlns:xlink="http://www.w3.org/1999/xlink">
    <title>step-over</title>
    <g id="Page-1" stroke="none" stroke-width="1" fill="none" fill-rule="evenodd">
        <g id="step-over" fill="#B4B8E3" fill-rule="nonzero">
            <path d="M5.54294434,16.0376951 C3.35506321,15.7370196 1.33796273,17.2679458 1.03732583,19.4568948 C0.738262938,21.6458438 2.26899272,23.6632031 4.45687385,23.9623043 C6.64475498,24.2629798 8.66264246,22.7320536 8.96249236,20.5438917 C9.2623423,18.3541557 7.73161247,16.3375835 5.54294434,16.0376951" id="Fill-4"></path>
            <path d="M9.80631615,4.39946672 L5.73626564,0.238007262 C5.4334711,-0.0709100517 4.89858531,-0.0805208127 4.58272602,0.217412775 L0.215260572,4.33974271 C-0.254301524,4.78321067 0.0946038627,5.51225553 0.777044356,5.51500146 L3.83419332,5.52941761 L3.83419332,9.95860545 C3.83419332,10.5345646 4.35601437,11 5.00002916,11 C5.64481247,11 6.16663352,10.5345646 6.16663352,9.95860545 L6.16663352,5.53971485 L9.21456032,5.55413099 C9.88624161,5.55756341 10.2474432,4.850486 9.80631615,4.39946672" id="Fill-4"></path>
        </g>
    </g>
</svg>