<?xml version="1.0" encoding="UTF-8"?>
<svg width="36px" height="20px" viewBox="0 0 36 20" version="1.1" xmlns="http://www.w3.org/2000/svg" xmlns:xlink="http://www.w3.org/1999/xlink">
    <title>step-out</title>
    <defs>
        <polygon id="path-1" points="0 0.448108617 35.3593554 0.448108617 35.3593554 18.390845 0 18.390845"></polygon>
    </defs>
    <g id="Page-1" stroke="none" stroke-width="1" fill="none" fill-rule="evenodd">
        <g id="step-out">
            <g id="Fill-1-Clipped">
                <mask id="mask-2" fill="white">
                    <use xlink:href="#path-1"></use>
                </mask>
                <g id="path-2"></g>
                <path d="M34.4919793,11.9826726 L31.5013278,12.3329855 C30.1137801,5.97845498 25.1929224,1.51999319 18.1134896,0.579257018 C13.626005,-0.0155451361 8.81141791,1.42949568 5.23364006,4.44145702 C1.71540392,7.40598015 0.00301476962,11.3316744 0,16.4455133 C0,17.0636696 0.51703299,17.5643252 1.15390307,17.5643252 L1.15541046,17.5643252 C1.79228054,17.5643252 2.31006722,17.0651292 2.31006722,16.4477027 C2.31383569,11.9563991 3.72474787,8.67805396 6.74931549,6.12952743 C9.83041005,3.53283287 13.9576297,2.28338344 17.7999535,2.79644591 C23.8603942,3.600706 27.9830916,7.24250078 29.2138713,12.6015587 L26.1930722,12.9555207 C25.5320839,13.0321517 25.2750748,13.8283838 25.7725118,14.2567873 L30.3511932,18.2014568 C30.6911085,18.4948439 31.2179394,18.4408373 31.4877613,18.0846858 L35.207987,13.1678979 C35.607444,12.6387795 35.1635192,11.904582 34.4919793,11.9826726" id="Fill-1" fill="#B4B8E3" fill-rule="nonzero" mask="url(#mask-2)"></path>
            </g>
            <path d="M16.5429443,12.0376949 C14.3550632,11.7370194 12.3379627,13.2679456 12.0373258,15.4568946 C11.7382629,17.6458436 13.2689927,19.6632029 15.4568738,19.9623041 C17.644755,20.2629796 19.6626425,18.7320534 19.9624924,16.5438916 C20.2623423,14.3541555 18.7316125,12.3375833 16.5429443,12.0376949" id="Fill-4" fill="#B4B8E3" fill-rule="nonzero"></path>
        </g>
    </g>
</svg>