<?xml version="1.0" encoding="UTF-8"?>
<svg width="36px" height="22px" viewBox="0 0 36 22" version="1.1" xmlns="http://www.w3.org/2000/svg" xmlns:xlink="http://www.w3.org/1999/xlink">
    <title>step-in</title>
    <defs>
        <polygon id="path-1" points="0 0.448108617 35.6845668 0.448108617 35.6845668 18.390845 0 18.390845"></polygon>
    </defs>
    <g id="Page-1" stroke="none" stroke-width="1" fill="none" fill-rule="evenodd">
        <g id="Group" transform="translate(18.000000, 10.886885) scale(-1, 1) translate(-18.000000, -10.886885) translate(0.000000, 0.386885)">
            <g id="Fill-1-Clipped" transform="translate(0.000000, 0.613115)">
                <mask id="mask-2" fill="white">
                    <use xlink:href="#path-1"></use>
                </mask>
                <g id="path-2"></g>
                <path d="M34.8092132,11.9826726 L31.7910557,12.3329855 C30.3907463,5.97845498 25.4246298,1.51999319 18.2800852,0.579257018 C13.7513278,-0.0155451361 8.89245938,1.42949568 5.28177555,4.44145702 C1.73118104,7.40598015 0.00304249744,11.3316744 0,16.4455133 C0,17.0636696 0.52178831,17.5643252 1.16451589,17.5643252 L1.16603714,17.5643252 C1.80876473,17.5643252 2.33131366,17.0651292 2.33131366,16.4477027 C2.33511678,11.9563991 3.75900558,8.67805396 6.81139114,6.12952743 C9.92082352,3.53283287 14.0860025,2.28338344 17.9636655,2.79644591 C24.079846,3.600706 28.2404612,7.24250078 29.4825608,12.6015587 L26.4339784,12.9555207 C25.7669108,13.0321517 25.5075379,13.8283838 26.00955,14.2567873 L30.6303429,18.2014568 C30.9733845,18.4948439 31.505061,18.4408373 31.7773645,18.0846858 L35.5318063,13.1678979 C35.9349372,12.6387795 35.4869295,11.904582 34.8092132,11.9826726" id="Fill-1" fill="#B4B8E3" fill-rule="nonzero" mask="url(#mask-2)"></path>
            </g>
            <path d="M16.5429443,12.6508099 C14.3550632,12.3501344 12.3379627,13.8810606 12.0373258,16.0700096 C11.7382629,18.2589586 13.2689927,20.2763179 15.4568738,20.5754191 C17.644755,20.8760946 19.6626425,19.3451684 19.9624924,17.1570066 C20.2623423,14.9672705 18.7316125,12.9506983 16.5429443,12.6508099" id="Fill-4" fill="#B4B8E3" fill-rule="nonzero"></path>
        </g>
    </g>
</svg>